<?xml version="1.0" encoding="UTF-8"?>
<svg id="Capa_1" xmlns="http://www.w3.org/2000/svg" version="1.1" viewBox="0 0 400 233.3">
  <!-- Generator: Adobe Illustrator 29.1.0, SVG Export Plug-In . SVG Version: 2.1.0 Build 142)  -->
  <defs>
    <style>
      .st0 {
        fill: #e52933;
      }

      .st1 {
        fill: #343585;
      }
    </style>
  </defs>
  <g>
    <polygon class="st1" points="39.6 81.6 80.8 81.6 123.6 123.1 69.1 123.1 41.3 94.9 13.3 123.1 0 123.1 39.6 81.6"/>
    <g>
      <polygon class="st1" points="302.8 24 272.1 24 237.7 60.5 237.7 0 209.2 9.4 209.2 46.2 203.9 35.1 110.2 46.2 147.7 46.2 196.4 92.9 147.7 51.8 76.8 51.8 52.4 77.7 65.4 77.7 77.4 64.7 137.2 123.1 224.6 123.1 302.8 40.5 389.6 127.8 389.6 222.8 0 222.8 0 233.3 400 233.3 400 123.1 302.8 24"/>
      <g>
        <polygon class="st0" points="42.7 100.8 21.6 123.1 17.9 123.1 40.9 99.1 42.7 100.8"/>
        <g>
          <rect class="st0" x="38.5" y="108.8" width="5.7" height="5.7"/>
          <rect class="st0" x="45.8" y="108.8" width="5.7" height="5.7"/>
          <rect class="st0" x="38.5" y="117" width="5.7" height="5.7"/>
          <rect class="st0" x="45.8" y="117" width="5.7" height="5.7"/>
        </g>
      </g>
    </g>
    <g>
      <polygon class="st0" points="303.1 53.8 297.3 60.5 359 123.1 372.5 123.1 303.1 53.8"/>
      <g>
        <rect class="st0" x="280.8" y="87.3" width="13" height="13"/>
        <rect class="st0" x="298.9" y="87.3" width="13" height="13"/>
        <rect class="st0" x="280.8" y="106.1" width="13" height="13"/>
        <rect class="st0" x="298.9" y="106.1" width="13" height="13"/>
      </g>
    </g>
  </g>
  <g>
    <polygon class="st0" points="381.2 140 88.6 140 88.6 140 88.1 140 85.1 147.7 91.3 154.7 93.9 148.1 381.2 148.1 381.2 140"/>
    <polygon class="st0" points="83.1 152 68.4 187.5 49.7 140 40.3 140 40.3 148.1 43.6 148.1 65 203.7 72.3 203.7 89.4 159 83.1 152"/>
    <path class="st0" d="M27.5,178c0,9.3-2.6,15-9.4,15.7-4.5.5-8.9-1.9-13.2-6.5l-4.9,7.3c6.2,7.9,11.6,9.6,19,9.1,17.7-1.1,18.5-11,18.5-24.3v-26.9h-9.9v25.6Z"/>
    <polygon class="st0" points="37.5 148.1 37.5 140 10.8 140 17.3 148.1 27.5 148.1 37.5 148.1"/>
  </g>
  <g>
    <path class="st1" d="M106.5,188.9v14.8h-7.8v-37h16.3c8.1,0,12.4,4.4,12.4,10.2s-2.7,7.6-5.4,8.8c1.8.7,4.6,2.6,4.6,9.2v1.8c0,2.5,0,5.3.5,7h-7.6c-.6-1.6-.8-4.4-.8-8.3v-.5c0-4-1-6-7-6h-5.3ZM106.5,182.5h6.7c4.4,0,6.1-1.7,6.1-4.7s-2-4.7-5.9-4.7h-6.9v9.5Z"/>
    <path class="st1" d="M158.8,189.8c0,8.4-5.1,14.6-13.9,14.6s-13.6-6.2-13.6-14.5,5.2-14.7,14-14.7,13.5,5.8,13.5,14.5ZM139.1,189.8c0,5.4,2.3,8.5,6,8.5s5.9-3.2,5.9-8.5-2.1-8.5-6-8.5-5.9,2.6-5.9,8.5Z"/>
    <path class="st1" d="M190.3,189.8c0,8.4-5.1,14.6-13.9,14.6s-13.6-6.2-13.6-14.5,5.2-14.7,14-14.7,13.5,5.8,13.5,14.5ZM170.6,189.8c0,5.4,2.3,8.5,6,8.5s5.9-3.2,5.9-8.5-2.1-8.5-6-8.5-5.9,2.6-5.9,8.5Z"/>
    <path class="st1" d="M196.8,203.7v-22h-4.1v-5.8h4.1v-2.4c0-5.7,2.8-9.5,8.9-9.5s2.8.1,3.5.3v6.1c-.4,0-1-.1-1.6-.1-2.3,0-3.1.8-3.1,3.8v1.8h4.8v5.8h-4.8v22h-7.7Z"/>
    <path class="st1" d="M213.4,171.4v-6.9h7.7v6.9h-7.7ZM213.4,175.9h7.7v27.8"/>
  </g>
</svg>
